<svg xmlns="http://www.w3.org/2000/svg" version="1.1" xmlns:xlink="http://www.w3.org/1999/xlink" viewBox="0 0 200 200" width="200" height="200"><metadata><rdf:RDF xmlns:rdf="http://www.w3.org/1999/02/22-rdf-syntax-ns#" xmlns:dc="http://purl.org/dc/elements/1.1/"><rdf:Description><dc:creator>RealFaviconGenerator</dc:creator><dc:source>https://realfavicongenerator.net</dc:source></rdf:Description></rdf:RDF></metadata><rect width="200" height="200" fill="url('#gradient')"></rect><defs><linearGradient id="gradient" gradientTransform="rotate(45 0.5 0.5)"><stop offset="0%" stop-color="#a0b9d1"></stop><stop offset="100%" stop-color="#0849e2"></stop></linearGradient></defs><g><g fill="#ffffff" transform="matrix(5.171717171717172,0,0,5.171717171717172,4.450959669219117,136.77028464789342)" stroke="#263054" stroke-width="0.45"><path d="M12.96-14.22L12.96 0L9.55 0L9.55-5.94L4.50-5.94L4.50 0L1.07 0L1.07-14.22L4.50-14.22L4.50-8.57L9.55-8.57L9.55-14.22L12.96-14.22ZM24.08-8.30L24.08-5.66L18.55-5.66L18.55 0L15.13 0L15.13-14.22L24.64-14.22L24.64-11.57L18.55-11.57L18.55-8.30L24.08-8.30ZM34.88-8.57L34.88-6.03L29.49-6.03L29.49-2.64L35.86-2.64L35.86 0L26.06 0L26.06-14.22L35.88-14.22L35.88-11.57L29.49-11.57L29.49-8.57L34.88-8.57Z"></path></g></g></svg>